<?xml version="1.0" encoding="utf-8"?>
<!-- Generator: Adobe Illustrator 21.0.2, SVG Export Plug-In . SVG Version: 6.00 Build 0)  -->
<svg version="1.1" id="Layer_1" xmlns="http://www.w3.org/2000/svg" xmlns:xlink="http://www.w3.org/1999/xlink" x="0px" y="0px"
	 viewBox="0 0 214.5 67.3" style="enable-background:new 0 0 214.5 67.3;" xml:space="preserve">
<style type="text/css">
	.st0{fill:#373D42;}
	.st1{fill:#212121;}
	.st2{fill:#FAFAFA;}
	.st3{fill:none;stroke:#212121;stroke-miterlimit:10;}
</style>
<g id="BackgroundBlend">
	<rect class="st0" width="214.5" height="67.3"/>
</g>
<path class="st1" d="M208.8,67.3H5.7c-3.1,0-5.7-2.6-5.7-5.7v-56C0,2.6,2.6,0,5.7,0h203.2c3.1,0,5.7,2.6,5.7,5.7v56
	C214.5,64.7,211.9,67.3,208.8,67.3z"/>
<g>
	<polygon class="st2" points="2.8,1 64.1,1 64.1,66.3 2.8,66.3 1,64.5 1,2.8 	"/>
	<path class="st3" d="M68.6,66.8H6.2c-3.1,0-5.7-2.6-5.7-5.7v-55c0-0.8,0.2-1.5,0.4-2.2c0.9-2,2.9-3.5,5.2-3.5h62.4
		c3.1,0,5.7,2.6,5.7,5.7v55C74.3,64.3,71.7,66.8,68.6,66.8z"/>
</g>
<g>
	<path class="st1" d="M28.6,60.2V39.4c0-8.2-0.1-14-0.5-20.1l0.2-0.1c2.4,5.3,5.7,10.9,9.1,16.3l15.4,24.8h6.3V11.4h-5.9v20.5
		c0,7.7,0.1,13.6,0.7,20L53.8,52c-2.3-5-5.1-10.2-8.7-15.9L29.5,11.3h-6.8v48.9h5.9V60.2z M5.5,11.4v48.9h6.3V11.4H5.5z"/>
	<path class="st2" d="M186.3,16.4c1-0.3,3.2-0.6,6.2-0.6c6.6,0.1,11.2,2.8,11.2,9.2c0,5.5-4.2,9.3-10.9,9.3h-6.4L186.3,16.4
		L186.3,16.4z M180.1,60.2h6.3V39.1h5.9c5.7,0.2,8.3,2.7,9.7,9.5c1.4,6,2.4,10.3,3.2,11.7h6.5c-1-1.9-2.2-6.6-3.7-13.4
		c-1.2-5-3.4-8.6-7.1-9.9v-0.2c5.1-1.7,9.1-6,9.1-12.5c0-3.7-1.4-7.2-3.8-9.3c-3-2.7-7.3-4-14-4c-4.3,0-8.9,0.4-12,1L180.1,60.2
		L180.1,60.2z M145.2,40l4.8-14.1c0.9-3,1.7-5.9,2.4-8.9h0.1c0.7,2.8,1.4,5.7,2.5,9l4.8,14.1h-14.6V40z M161.1,44.9l5.2,15.4h6.7
		l-16.6-49h-7.6l-16.5,48.9h6.5l5-15.4h17.3V44.9z M114.8,60.2h6.3V16.7H136v-5.3h-35.9v5.3h14.8L114.8,60.2L114.8,60.2z M67.7,57.8
		c2.6,1.7,7.7,3.1,12.4,3.1c11.4,0,17-6.5,17-14.1c0-7.2-4.2-11.2-12.4-14.4c-6.7-2.6-9.6-4.8-9.6-9.5c0-3.3,2.5-7.4,9.1-7.4
		c4.4,0,7.6,1.4,9.2,2.3l1.7-5.1c-2.2-1.2-5.8-2.4-10.7-2.4c-9.4,0-15.7,5.6-15.7,13.3c0,6.9,4.9,11,12.8,13.9
		c6.6,2.5,9.1,5.1,9.1,9.7c0,4.9-3.7,8.4-10.2,8.4c-4.3,0-8.4-1.4-11.2-3.2L67.7,57.8z"/>
</g>
</svg>
